<svg xmlns="http://www.w3.org/2000/svg" width="198.62" height="38.263" viewBox="0 0 198.62 38.263"><defs><style>.a{fill:#fff;}</style></defs><path class="a" d="M190.186,28.872h0a3.1,3.1,0,0,1-3.086-3.086h0a3.1,3.1,0,0,1,3.086-3.086h0a3.1,3.1,0,0,1,3.086,3.086h0A3.163,3.163,0,0,1,190.186,28.872Z" transform="translate(5.348 0.649)"/><path class="a" d="M82.771,0A2.546,2.546,0,0,0,80.2,2.571V26.435a2.571,2.571,0,0,0,5.143,0V2.571A2.546,2.546,0,0,0,82.771,0Z" transform="translate(2.293)"/><path class="a" d="M65.683,8.5C59.82,8.4,55.5,13.129,55.5,18.992c0,6.789,6.48,11.52,13.063,10.08a12.555,12.555,0,0,0,3.6-1.44,2.327,2.327,0,1,0-2.674-3.806,5.706,5.706,0,0,1-3.806.926,5,5,0,0,1-4.834-3.7H72.883a2.975,2.975,0,0,0,3.086-3.291v-.1A10.672,10.672,0,0,0,65.683,8.5ZM60.54,17.037a4.9,4.9,0,0,1,4.937-3.909,4.713,4.713,0,0,1,5.04,3.909Z" transform="translate(1.587 0.243)"/><path class="a" d="M179.334,20.949h1.44a2.975,2.975,0,0,0,3.086-3.291v-.1A10.463,10.463,0,0,0,173.883,8.4C168.02,8.3,163.7,13.029,163.7,18.892c0,6.789,6.48,11.52,13.063,10.08a12.555,12.555,0,0,0,3.6-1.44,2.327,2.327,0,1,0-2.674-3.806,5.706,5.706,0,0,1-3.806.926,5,5,0,0,1-4.834-3.7h10.286Zm-10.7-3.909a4.9,4.9,0,0,1,4.937-3.909,4.713,4.713,0,0,1,5.04,3.909Z" transform="translate(4.679 0.24)"/><path class="a" d="M112.177,8.5a7.492,7.492,0,0,0-5.76,2.674A6.2,6.2,0,0,0,101.172,8.5a7.706,7.706,0,0,0-4.937,1.851,2.442,2.442,0,0,0-2.263-1.337A2.546,2.546,0,0,0,91.4,11.586V26.192a2.546,2.546,0,0,0,2.571,2.571h0a2.546,2.546,0,0,0,2.571-2.571V16.009a2.965,2.965,0,0,1,.72-2.057,3.207,3.207,0,0,1,2.16-.926,2.985,2.985,0,0,1,2.983,2.983h0V26.192a2.571,2.571,0,1,0,5.143,0V16.009a2.9,2.9,0,0,1,2.983-2.88,2.985,2.985,0,0,1,2.983,2.983h0V26.295a2.546,2.546,0,0,0,2.571,2.571h0a2.546,2.546,0,0,0,2.571-2.571V14.98A6.328,6.328,0,0,0,112.177,8.5Z" transform="translate(2.613 0.243)"/><path class="a" d="M27.971,9A2.546,2.546,0,0,0,25.4,11.571V26.177a2.571,2.571,0,0,0,5.143,0V11.571A2.546,2.546,0,0,0,27.971,9Z" transform="translate(0.726 0.257)"/><path class="a" d="M141.312,9.014a2.747,2.747,0,0,0-2.571,2.057h0A8.871,8.871,0,0,0,132.466,8.5c-5.349,0-9.566,4.629-9.566,10.389s4.32,10.389,9.566,10.389a9.133,9.133,0,0,0,6.274-2.571,2.476,2.476,0,0,0,2.571,2.057,2.546,2.546,0,0,0,2.571-2.571V11.586A2.546,2.546,0,0,0,141.312,9.014Zm-7.92,15.429a5.445,5.445,0,0,1-5.452-5.554,5.445,5.445,0,0,1,5.452-5.554,5.36,5.36,0,0,1,5.349,5.554A5.36,5.36,0,0,1,133.392,24.443Z" transform="translate(3.513 0.243)"/><path class="a" d="M157.689,13.98a2.393,2.393,0,0,0,2.366-2.366,2.483,2.483,0,0,0-2.366-2.469h-1.954V6.471a2.571,2.571,0,0,0-5.143,0V9.146h-.926a2.393,2.393,0,0,0-2.366,2.366,2.465,2.465,0,0,0,2.366,2.366h.926v7.406c0,2.366-.72,7.509,7.1,7.509a2.366,2.366,0,0,0,0-4.731c-1.337-.1-1.851-.514-1.851-2.366V13.877l1.851.1Z" transform="translate(4.211 0.111)"/><path class="a" d="M51.136,9.516a2.5,2.5,0,0,0-3.6.411l-3.7,4.731-3.7-4.731a2.562,2.562,0,1,0-4.011,3.189l4.526,5.76-4.629,5.657a2.562,2.562,0,0,0,4.011,3.189l3.6-4.629,3.6,4.629a2.5,2.5,0,0,0,3.6.411h0a2.5,2.5,0,0,0,.411-3.6l-4.423-5.657,4.526-5.76A2.338,2.338,0,0,0,51.136,9.516Z" transform="translate(1.013 0.255)"/><circle class="a" cx="2.571" cy="2.571" r="2.571" transform="translate(26.126)"/><path class="a" d="M11.417,8.5a9.133,9.133,0,0,0-6.274,2.571A2.568,2.568,0,0,0,2.571,9.014,2.546,2.546,0,0,0,0,11.586V35.449A2.546,2.546,0,0,0,2.571,38.02a2.546,2.546,0,0,0,2.571-2.571V26.706a9.33,9.33,0,0,0,6.274,2.571c5.349,0,9.566-4.629,9.566-10.389C21.086,13.129,16.766,8.5,11.417,8.5Zm-.926,16.046a5.36,5.36,0,0,1-5.349-5.554,5.36,5.36,0,0,1,5.349-5.554,5.445,5.445,0,0,1,5.452,5.554A5.445,5.445,0,0,1,10.492,24.546Z" transform="translate(0 0.243)"/></svg>